<?xml version='1.0' encoding='UTF-8' standalone='no'?>
<svg height="698pt" viewBox="0 0 718 698" width="718pt" xmlns="http://www.w3.org/2000/svg" xmlns:xlink="http://www.w3.org/1999/xlink">
 <title>Figure 8</title>
 <desc>
Creator: GL2PS 1.4.2, (C) 1999-2020 C. Geuzaine
For: Octave
CreationDate: Wed Oct  7 10:24:34 2026
</desc>
 <defs/>
 <polygon fill="#ffffff" points="0,0 718,0 718,698 0,698"/>
 <g>
  <polygon fill="#ffffff" points="0,698 718,698 718,0 0,0" shape-rendering="crispEdges"/>
  <clipPath id="cp00718698">
   <polygon points="0,698 718,698 718,0 0,0"/>
  </clipPath>
  <g clip-path="url(#cp00718698)">
   <polygon fill="#ffffff" points="93.3796,621.959 650.066,621.959 650.066,52.4123 93.3796,52.4123" shape-rendering="crispEdges"/>
   <polyline fill="none" points="93.3796,621.959 93.3796,616.268" stroke="#262626" stroke-linecap="butt" stroke-linejoin="miter" stroke-width="0.5"/>
   <polyline fill="none" points="93.3796,52.4123 93.3796,58.1032" stroke="#262626" stroke-linecap="butt" stroke-linejoin="miter" stroke-width="0.5"/>
   <polyline fill="none" points="204.717,621.959 204.717,616.268" stroke="#262626" stroke-linecap="butt" stroke-linejoin="miter" stroke-width="0.5"/>
   <polyline fill="none" points="204.717,52.4123 204.717,58.1032" stroke="#262626" stroke-linecap="butt" stroke-linejoin="miter" stroke-width="0.5"/>
   <polyline fill="none" points="316.054,621.959 316.054,616.268" stroke="#262626" stroke-linecap="butt" stroke-linejoin="miter" stroke-width="0.5"/>
   <polyline fill="none" points="316.054,52.4123 316.054,58.1032" stroke="#262626" stroke-linecap="butt" stroke-linejoin="miter" stroke-width="0.5"/>
   <polyline fill="none" points="427.391,621.959 427.391,616.268" stroke="#262626" stroke-linecap="butt" stroke-linejoin="miter" stroke-width="0.5"/>
   <polyline fill="none" points="427.391,52.4123 427.391,58.1032" stroke="#262626" stroke-linecap="butt" stroke-linejoin="miter" stroke-width="0.5"/>
   <polyline fill="none" points="538.729,621.959 538.729,616.268" stroke="#262626" stroke-linecap="butt" stroke-linejoin="miter" stroke-width="0.5"/>
   <polyline fill="none" points="538.729,52.4123 538.729,58.1032" stroke="#262626" stroke-linecap="butt" stroke-linejoin="miter" stroke-width="0.5"/>
   <polyline fill="none" points="650.066,621.959 650.066,616.268" stroke="#262626" stroke-linecap="butt" stroke-linejoin="miter" stroke-width="0.5"/>
   <polyline fill="none" points="650.066,52.4123 650.066,58.1032" stroke="#262626" stroke-linecap="butt" stroke-linejoin="miter" stroke-width="0.5"/>
   <g font-family="FreeSans" font-size="10" font-style="normal" font-weight="normal" transform="translate(90.3796,637.453) rotate(-0,3,-8)" xml:space="preserve">
    <text fill="rgb(38,38,38)" x="0 " y="-0">0</text>
   </g>
   <g font-family="FreeSans" font-size="10" font-style="normal" font-weight="normal" transform="translate(201.717,637.453) rotate(-0,3,-8)" xml:space="preserve">
    <text fill="rgb(38,38,38)" x="0 " y="-0">2</text>
   </g>
   <g font-family="FreeSans" font-size="10" font-style="normal" font-weight="normal" transform="translate(313.054,637.453) rotate(-0,3,-8)" xml:space="preserve">
    <text fill="rgb(38,38,38)" x="0 " y="-0">4</text>
   </g>
   <g font-family="FreeSans" font-size="10" font-style="normal" font-weight="normal" transform="translate(424.391,637.453) rotate(-0,3,-8)" xml:space="preserve">
    <text fill="rgb(38,38,38)" x="0 " y="-0">6</text>
   </g>
   <g font-family="FreeSans" font-size="10" font-style="normal" font-weight="normal" transform="translate(535.729,637.453) rotate(-0,3,-8)" xml:space="preserve">
    <text fill="rgb(38,38,38)" x="0 " y="-0">8</text>
   </g>
   <g font-family="FreeSans" font-size="10" font-style="normal" font-weight="normal" transform="translate(644.066,637.453) rotate(-0,6,-8)" xml:space="preserve">
    <text fill="rgb(38,38,38)" x="0 6 " y="-0">10</text>
   </g>
   <polyline fill="none" points="93.3796,621.959 99.0719,621.959" stroke="#262626" stroke-linecap="butt" stroke-linejoin="miter" stroke-width="0.5"/>
   <polyline fill="none" points="650.066,621.959 644.374,621.959" stroke="#262626" stroke-linecap="butt" stroke-linejoin="miter" stroke-width="0.5"/>
   <polyline fill="none" points="93.3796,540.595 99.0719,540.595" stroke="#262626" stroke-linecap="butt" stroke-linejoin="miter" stroke-width="0.5"/>
   <polyline fill="none" points="650.066,540.595 644.374,540.595" stroke="#262626" stroke-linecap="butt" stroke-linejoin="miter" stroke-width="0.5"/>
   <polyline fill="none" points="93.3796,459.232 99.0719,459.232" stroke="#262626" stroke-linecap="butt" stroke-linejoin="miter" stroke-width="0.5"/>
   <polyline fill="none" points="650.066,459.232 644.374,459.232" stroke="#262626" stroke-linecap="butt" stroke-linejoin="miter" stroke-width="0.5"/>
   <polyline fill="none" points="93.3796,377.868 99.0719,377.868" stroke="#262626" stroke-linecap="butt" stroke-linejoin="miter" stroke-width="0.5"/>
   <polyline fill="none" points="650.066,377.868 644.374,377.868" stroke="#262626" stroke-linecap="butt" stroke-linejoin="miter" stroke-width="0.5"/>
   <polyline fill="none" points="93.3796,296.504 99.0719,296.504" stroke="#262626" stroke-linecap="butt" stroke-linejoin="miter" stroke-width="0.5"/>
   <polyline fill="none" points="650.066,296.504 644.374,296.504" stroke="#262626" stroke-linecap="butt" stroke-linejoin="miter" stroke-width="0.5"/>
   <polyline fill="none" points="93.3796,215.14 99.0719,215.14" stroke="#262626" stroke-linecap="butt" stroke-linejoin="miter" stroke-width="0.5"/>
   <polyline fill="none" points="650.066,215.14 644.374,215.14" stroke="#262626" stroke-linecap="butt" stroke-linejoin="miter" stroke-width="0.5"/>
   <polyline fill="none" points="93.3796,133.776 99.0719,133.776" stroke="#262626" stroke-linecap="butt" stroke-linejoin="miter" stroke-width="0.5"/>
   <polyline fill="none" points="650.066,133.776 644.374,133.776" stroke="#262626" stroke-linecap="butt" stroke-linejoin="miter" stroke-width="0.5"/>
   <polyline fill="none" points="93.3796,52.4123 99.0719,52.4123" stroke="#262626" stroke-linecap="butt" stroke-linejoin="miter" stroke-width="0.5"/>
   <polyline fill="none" points="650.066,52.4123 644.374,52.4123" stroke="#262626" stroke-linecap="butt" stroke-linejoin="miter" stroke-width="0.5"/>
   <g font-family="FreeSans" font-size="10" font-style="normal" font-weight="normal" transform="translate(82.3824,625.959) rotate(-0,6,-4)" xml:space="preserve">
    <text fill="rgb(38,38,38)" x="0 " y="-0">0</text>
   </g>
   <g font-family="FreeSans" font-size="10" font-style="normal" font-weight="normal" transform="translate(82.3824,544.595) rotate(-0,6,-4)" xml:space="preserve">
    <text fill="rgb(38,38,38)" x="0 " y="-0">5</text>
   </g>
   <g font-family="FreeSans" font-size="10" font-style="normal" font-weight="normal" transform="translate(76.3824,463.231) rotate(-0,12,-4)" xml:space="preserve">
    <text fill="rgb(38,38,38)" x="0 6 " y="-0">10</text>
   </g>
   <g font-family="FreeSans" font-size="10" font-style="normal" font-weight="normal" transform="translate(76.3824,381.868) rotate(-0,12,-4)" xml:space="preserve">
    <text fill="rgb(38,38,38)" x="0 6 " y="-0">15</text>
   </g>
   <g font-family="FreeSans" font-size="10" font-style="normal" font-weight="normal" transform="translate(76.3824,300.504) rotate(-0,12,-4)" xml:space="preserve">
    <text fill="rgb(38,38,38)" x="0 6 " y="-0">20</text>
   </g>
   <g font-family="FreeSans" font-size="10" font-style="normal" font-weight="normal" transform="translate(76.3824,219.14) rotate(-0,12,-4)" xml:space="preserve">
    <text fill="rgb(38,38,38)" x="0 6 " y="-0">25</text>
   </g>
   <g font-family="FreeSans" font-size="10" font-style="normal" font-weight="normal" transform="translate(76.3824,137.776) rotate(-0,12,-4)" xml:space="preserve">
    <text fill="rgb(38,38,38)" x="0 6 " y="-0">30</text>
   </g>
   <g font-family="FreeSans" font-size="10" font-style="normal" font-weight="normal" transform="translate(76.3824,56.4123) rotate(-0,12,-4)" xml:space="preserve">
    <text fill="rgb(38,38,38)" x="0 6 " y="-0">35</text>
   </g>
   <polyline fill="none" points="93.3796,621.959 650.066,621.959" stroke="#262626" stroke-dasharray="16,0" stroke-linecap="square" stroke-linejoin="miter" stroke-width="0.5"/>
   <polyline fill="none" points="93.3796,52.4123 650.066,52.4123" stroke="#262626" stroke-dasharray="16,0" stroke-linecap="square" stroke-linejoin="miter" stroke-width="0.5"/>
   <polyline fill="none" points="93.3796,621.959 93.3796,52.4123" stroke="#262626" stroke-dasharray="16,0" stroke-linecap="square" stroke-linejoin="miter" stroke-width="0.5"/>
   <polyline fill="none" points="650.066,621.959 650.066,52.4123" stroke="#262626" stroke-dasharray="16,0" stroke-linecap="square" stroke-linejoin="miter" stroke-width="0.5"/>
   <g font-family="FreeSans" font-size="11" font-style="normal" font-weight="normal" transform="translate(351.723,654.453) rotate(-0,20,-12)" xml:space="preserve">
    <text fill="rgb(38,38,38)" x="0 7 9 18 24 27 31 36 " y="-3">Time (s)</text>
   </g>
   <g font-family="FreeSans" font-size="11" font-style="normal" font-weight="normal" transform="translate(18.3824,337.186) rotate(-90,53,0)" xml:space="preserve">
    <text fill="rgb(38,38,38)" x="0 7 13 22 28 31 37 41 47 52 57 63 67 73 76 80 89 96 102 " y="-3">Pump pressure (MPa)</text>
   </g>
   <g font-family="FreeSans" font-size="11" font-style="normal" font-weight="bold" transform="translate(290.223,42.4123) rotate(-0,81.5,0)" xml:space="preserve">
    <text fill="rgb(0,0,0)" x="0 7 13 19 23 29 39 42 49 53 59 65 71 78 82 88 91 95 102 106 113 120 127 134 137 144 147 157 " y="-3">System Pressure through Time</text>
   </g>
   <polyline fill="none" points="93.3796,410.413 100.252,410.413 107.125,410.413 113.998,410.413 120.87,410.413 127.743,410.413 134.616,410.413 141.488,410.413 148.361,410.413 155.234,410.413 162.106,410.413 168.979,410.413 175.852,410.413 182.724,410.413 189.597,410.413 196.47,410.413 203.342,410.413 210.215,410.413 217.088,410.413 223.96,410.413 230.833,410.413 237.706,410.413 244.578,410.413 251.451,410.413 258.324,410.413 265.196,410.413 272.069,410.413 278.942,410.413 285.814,410.413 292.687,410.413 299.56,410.413 306.432,410.413 313.305,410.413 320.178,410.413 327.05,410.413 333.923,410.413 340.796,410.413 347.668,410.413 354.541,410.413 361.414,410.413 368.286,410.413 375.159,410.413 382.032,410.413 388.904,410.413 395.777,410.413 402.65,410.413 409.522,410.413 416.395,410.413 423.268,410.413 430.14,410.413 437.013,410.413 443.886,410.413 450.759,410.413 457.631,410.413 464.504,410.413 471.376,410.413 478.249,410.413 485.122,410.413 491.995,410.413 498.867,410.413 505.74,410.413 512.613,410.413 519.485,410.413 526.358,410.413 533.231,410.413 540.103,410.413 546.976,410.413 553.849,410.413 560.721,410.413 567.594,410.413 574.467,410.413 581.339,410.413 588.212,410.413 595.085,410.413 601.957,410.413 608.83,410.413 615.703,410.413 622.575,410.413 629.448,410.413 636.321,410.413 643.193,410.413 650.066,410.413" stroke="#0071bc" stroke-linecap="butt" stroke-linejoin="round" stroke-width="0.5"/>
  </g>
 </g>
</svg>
